<svg width="32" height="33" viewBox="0 0 32 33" fill="none" xmlns="http://www.w3.org/2000/svg">
<path fill-rule="evenodd" clip-rule="evenodd" d="M7.45092 7.19238L5.06934 4.8108C7.81015 2.24295 11.4424 0.633049 15.4605 0.5V3.86615C12.3737 3.9992 9.5797 5.23655 7.45092 7.19238Z" fill="#747776"/>
<path fill-rule="evenodd" clip-rule="evenodd" d="M3.36615 15.9605H0C0.133049 11.9424 1.74295 8.31015 4.3108 5.56934L6.69238 7.95092C4.73655 10.0797 3.4992 12.8737 3.36615 15.9605Z" fill="#747776"/>
<path fill-rule="evenodd" clip-rule="evenodd" d="M6.69238 25.0486L4.3108 27.4302C1.74295 24.6894 0.133049 21.0571 0 17.0391H3.36615C3.4992 20.1258 4.73655 22.9198 6.69238 25.0486Z" fill="#747776"/>
<path fill-rule="evenodd" clip-rule="evenodd" d="M15.4605 29.1339V32.5C11.4424 32.3669 7.81015 30.757 5.06934 28.1892L7.45092 25.8076C9.5797 27.7634 12.3737 29.0008 15.4605 29.1339Z" fill="#747776"/>
<path fill-rule="evenodd" clip-rule="evenodd" d="M24.5467 25.8076L26.9283 28.1892C24.1874 30.757 20.5552 32.3669 16.5371 32.5V29.1339C19.6239 29.0008 22.4179 27.7634 24.5467 25.8076Z" fill="#747776"/>
<path fill-rule="evenodd" clip-rule="evenodd" d="M28.6309 17.0391H31.9971C31.864 21.0571 30.2541 24.6894 27.6863 27.4302L25.3047 25.0486C27.2605 22.9198 28.4979 20.1258 28.6309 17.0391Z" fill="#747776"/>
<path fill-rule="evenodd" clip-rule="evenodd" d="M25.3047 7.95092L27.6863 5.56934C30.2541 8.31015 31.864 11.9424 31.9971 15.9605H28.6309C28.4979 12.8737 27.2605 10.0797 25.3047 7.95092Z" fill="#747776"/>
<path fill-rule="evenodd" clip-rule="evenodd" d="M16.5371 0.5C20.5552 0.633049 24.1874 2.24295 26.9283 4.8108L24.5467 7.19238C22.4179 5.23655 19.6239 3.9992 16.5371 3.86615V0.5Z" fill="#747776"/>
<path fill-rule="evenodd" clip-rule="evenodd" d="M16.004 4.93066C22.3904 4.93066 27.566 10.1063 27.566 16.5059C27.566 22.8923 22.3904 28.0679 16.004 28.0679C9.60432 28.0679 4.42871 22.8923 4.42871 16.5059C4.42871 10.1063 9.60432 4.93066 16.004 4.93066Z" fill="#5F6160"/>
<path d="M15.7207 9.5C12.739 9.5 11.0481 11.1204 11 13.466V13.5833H13.6323V13.466C13.69 12.43 14.4289 11.7616 15.5457 11.7616C16.6528 11.7616 17.391 12.3825 17.391 13.2586C17.391 14.1348 17.0122 14.5872 15.7595 15.3128C14.419 16.0758 13.8842 16.9238 14.0105 18.4312L14.0258 18.8333H16.604V18.4505C16.604 17.5464 16.9637 17.0838 18.2555 16.3587C19.6248 15.5765 20.3333 14.5877 20.3333 13.1743C20.3333 10.9979 18.4985 9.5 15.7207 9.5ZM15.3707 20.5833C14.3826 20.5833 13.7662 21.1397 13.7662 22.0462C13.7662 22.9446 14.3832 23.5 15.3707 23.5C16.3582 23.5 16.9669 22.9446 16.9669 22.0462C16.9669 21.1397 16.3588 20.5833 15.3707 20.5833Z" fill="white"/>
</svg>
