<svg width="24" height="17" viewBox="0 0 24 17" fill="none" xmlns="http://www.w3.org/2000/svg">
<path d="M5.2963 13.4361C10.5108 15.4711 14.9483 15.8675 19.9769 12.7C19.94 12.7553 18.9453 14.2289 16.3295 14.9842C16.8821 15.7395 17.6374 16.6052 17.6374 16.6052C19.3137 16.6052 20.9532 16.1263 22.3716 15.2052C23.4769 14.4684 24.1032 13.1973 23.9742 11.871C23.7532 9.60522 23.2189 7.3947 22.39 5.27633C21.34 2.51318 18.8164 0.597372 15.8874 0.321036C15.6295 0.302607 15.4453 0.302607 15.3348 0.302607L15.0401 0.597318C18.4111 1.55522 20.0875 3.04732 20.1243 3.10261C14.9479 0.486794 8.83218 0.449989 3.61898 2.99208C3.61898 2.99208 5.27689 1.35261 8.94265 0.486794L8.7216 0.265747C8.33474 0.265747 7.96631 0.302606 7.57951 0.357841C4.8716 0.818364 2.60584 2.67889 1.62951 5.23941C0.782124 7.44994 0.229507 9.77098 0.0268896 12.1289C-0.0836339 13.3815 0.505843 14.6157 1.53741 15.3342C2.90055 16.2368 4.5216 16.7157 6.16108 16.7157C6.16108 16.7157 6.82422 15.8499 7.48741 15.0763C5.00055 14.3394 3.98741 12.8657 3.96898 12.8105L4.437 13.0494C4.71678 13.1924 5.00362 13.3219 5.2963 13.4361ZM8.18741 11.8342C6.99003 11.7973 6.05055 10.7842 6.08741 9.56837C6.12427 8.42627 7.04532 7.50522 8.18741 7.46836C9.3848 7.50522 10.3243 8.51836 10.2874 9.73418C10.2321 10.8763 9.32951 11.7974 8.18741 11.8342ZM15.7032 11.8342C14.5058 11.7973 13.5663 10.7842 13.6032 9.56837C13.64 8.42627 14.5611 7.50522 15.7032 7.46836C16.9006 7.50522 17.84 8.51836 17.8032 9.73418C17.7664 10.8763 16.8453 11.7974 15.7032 11.8342Z" fill="white"/>
</svg>
