<svg width="23" height="19" viewBox="0 0 23 19" fill="none" xmlns="http://www.w3.org/2000/svg">
<path fill-rule="evenodd" clip-rule="evenodd" d="M2.05368 7.78989C7.88409 5.24968 11.7719 3.57501 13.7172 2.7659C19.2715 0.455712 20.4256 0.0544082 21.1778 0.0411569C21.3433 0.0382424 21.7132 0.0792452 21.9528 0.273684C22.1551 0.437863 22.2108 0.659647 22.2375 0.815308C22.2641 0.970968 22.2973 1.32557 22.2709 1.60264C21.9699 4.76511 20.6676 12.4396 20.005 15.9816C19.7246 17.4804 19.1726 17.9829 18.6382 18.0321C17.4767 18.139 16.5948 17.2645 15.4699 16.5271C13.7096 15.3733 12.7152 14.655 11.0066 13.529C9.03193 12.2278 10.312 11.5126 11.4373 10.3437C11.7318 10.0379 16.8492 5.38327 16.9482 4.96102C16.9606 4.90822 16.9721 4.71137 16.8551 4.60743C16.7382 4.50349 16.5656 4.53903 16.4411 4.5673C16.2645 4.60737 13.4525 6.46602 8.00493 10.1433C7.20674 10.6913 6.48377 10.9584 5.83601 10.9444C5.12191 10.929 3.74826 10.5406 2.72709 10.2087C1.47459 9.80156 0.479126 9.58631 0.565809 8.89486C0.610958 8.53471 1.10692 8.16639 2.05368 7.78989Z" fill="white"/>
</svg>
