<svg width="25" height="24" viewBox="0 0 25 24" fill="none" xmlns="http://www.w3.org/2000/svg">
<g clip-path="url(#clip0_1996_137)">
<path d="M12.9297 23.9858C14.765 23.725 16.3739 21.8095 17.3863 18.9807C15.9227 18.6529 14.4292 18.477 12.9297 18.4561V23.9858Z" fill="white"/>
<path d="M15.8601 23.5359C15.9686 23.5045 16.0767 23.4729 16.1839 23.4381C16.2744 23.409 16.3636 23.3776 16.4528 23.3464C16.5584 23.3099 16.6635 23.2724 16.7682 23.2327C16.8574 23.1987 16.9458 23.1627 17.0344 23.1267C17.1366 23.0837 17.2386 23.041 17.3396 22.9981C17.4277 22.9593 17.5153 22.9187 17.6028 22.8779C17.7019 22.8312 17.8005 22.7836 17.8983 22.7342C17.9842 22.6904 18.0699 22.6458 18.1557 22.6C18.2519 22.5484 18.3474 22.4959 18.4422 22.4418C18.5281 22.3932 18.6108 22.3444 18.6944 22.2942C18.7874 22.237 18.88 22.1798 18.9719 22.1226C19.0542 22.0703 19.1363 22.0171 19.2174 21.9622C19.3078 21.9013 19.397 21.8378 19.4858 21.7744C19.5656 21.7172 19.645 21.6602 19.7229 21.6028C19.8088 21.5366 19.8968 21.4682 19.9828 21.3995C20.0593 21.3385 20.1355 21.278 20.2107 21.2154C20.2964 21.1442 20.3785 21.0704 20.4616 20.9967C20.5345 20.932 20.6078 20.8679 20.679 20.8015C20.7609 20.7251 20.8407 20.6459 20.9205 20.5674C20.9896 20.4991 21.0595 20.4319 21.1272 20.3619C21.1398 20.3489 21.1517 20.3349 21.1647 20.3215C20.2291 19.8383 19.2437 19.459 18.2257 19.1906C17.6962 20.879 16.754 22.4092 15.4844 23.6419C15.5191 23.6329 15.5539 23.6256 15.5887 23.6166C15.6804 23.5908 15.7705 23.5625 15.8601 23.5359Z" fill="white"/>
<path d="M24.4991 12.4387H19.3562C19.3368 14.4468 19.0454 16.4429 18.4902 18.3729C19.6224 18.6753 20.7151 19.1101 21.7455 19.6682C23.4373 17.6292 24.4057 15.0868 24.4991 12.4387Z" fill="white"/>
<path d="M12.9297 11.5809H18.5C18.4783 9.64387 18.1941 7.71874 17.6556 5.85791C16.1045 6.21165 14.5203 6.40056 12.9297 6.4215V11.5809Z" fill="white"/>
<path d="M12.9297 0.0339355V5.56366C14.4292 5.54251 15.9227 5.36679 17.3863 5.03902C16.3739 2.21018 14.765 0.294683 12.9297 0.0339355Z" fill="white"/>
<path d="M12.9297 17.5982C14.5203 17.6193 16.1045 17.8082 17.6556 18.162C18.1941 16.3011 18.4783 14.3758 18.5 12.4387H12.9297V17.5982Z" fill="white"/>
<path d="M21.7455 4.35144C20.7151 4.90959 19.6224 5.34437 18.4902 5.6468C19.0454 7.57675 19.3368 9.57287 19.3562 11.5809H24.4991C24.4055 8.93305 23.4371 6.39071 21.7455 4.35144Z" fill="white"/>
<path d="M21.1661 3.70069C21.1535 3.68791 21.1416 3.67409 21.1292 3.6609C21.0614 3.59095 20.991 3.52351 20.9219 3.45544C20.8423 3.3769 20.7629 3.29753 20.6808 3.22129C20.6098 3.15511 20.5363 3.09249 20.4634 3.02652C20.3803 2.9528 20.2971 2.87845 20.2117 2.80724C20.1375 2.74462 20.0615 2.68472 19.9861 2.62461C19.9003 2.55508 19.8123 2.48596 19.7239 2.41957C19.6464 2.36114 19.5679 2.30459 19.4889 2.24805C19.3993 2.18354 19.3092 2.11924 19.2179 2.05788C19.1377 2.00384 19.0562 1.95107 18.9748 1.89934C18.882 1.83965 18.7894 1.78121 18.695 1.72467C18.6122 1.67503 18.5287 1.62602 18.4449 1.57848C18.349 1.52361 18.2528 1.47041 18.1559 1.41847C18.07 1.37554 17.9843 1.32883 17.8985 1.2859C17.7998 1.23605 17.7003 1.18809 17.5983 1.14097C17.5125 1.10013 17.4254 1.06034 17.337 1.02159C17.2354 0.976563 17.1328 0.935933 17.0304 0.892998C16.942 0.856975 16.854 0.821371 16.7648 0.787443C16.6607 0.74765 16.5552 0.710371 16.4496 0.673929C16.3604 0.642514 16.2712 0.611308 16.1807 0.581987C16.0734 0.54722 15.9662 0.515596 15.8561 0.483762C15.7668 0.457582 15.6772 0.430984 15.5869 0.407108C15.5524 0.397684 15.5172 0.390353 15.4824 0.381348C16.752 1.61408 17.6941 3.14401 18.2237 4.83269C19.2428 4.56419 20.2297 4.18469 21.1661 3.70069Z" fill="white"/>
<path d="M0.5 11.5809H5.6429C5.66237 9.57287 5.9537 7.57675 6.5087 5.6468C5.3767 5.34458 4.28408 4.9098 3.25366 4.35144C1.56184 6.3905 0.593408 8.93305 0.5 11.5809Z" fill="white"/>
<path d="M12.0718 23.9858V18.4561C10.5723 18.4772 9.07877 18.6529 7.61523 18.9807C8.62744 21.8095 10.2365 23.725 12.0718 23.9858Z" fill="white"/>
<path d="M12.0704 12.4387H6.5C6.52178 14.3758 6.80578 16.3011 7.34444 18.162C8.89552 17.808 10.4795 17.6191 12.0704 17.5982V12.4387Z" fill="white"/>
<path d="M12.0718 0.0339355C10.2365 0.294683 8.62744 2.21018 7.61523 5.03902C9.07877 5.367 10.5723 5.54272 12.0718 5.56366V0.0339355Z" fill="white"/>
<path d="M12.0704 6.4215C10.4797 6.40056 8.89552 6.21165 7.34444 5.85791C6.80578 7.71874 6.52178 9.64387 6.5 11.5809H12.0704V6.4215Z" fill="white"/>
<path d="M9.51304 0.380981C9.47827 0.389987 9.4435 0.397317 9.40874 0.406323C9.31784 0.430618 9.2282 0.457635 9.13773 0.483814C9.03008 0.51523 8.92327 0.546854 8.8152 0.581202C8.72409 0.610732 8.63445 0.642147 8.54482 0.673353C8.43989 0.710423 8.33475 0.747284 8.23087 0.786658C8.14123 0.821005 8.05285 0.856609 7.96405 0.893051C7.86206 0.935985 7.75985 0.97892 7.65911 1.02164C7.57073 1.06039 7.4834 1.10102 7.39585 1.14186C7.29679 1.18856 7.19815 1.23611 7.10034 1.28553C7.01447 1.32931 6.9286 1.37412 6.84294 1.41978C6.74681 1.4713 6.65152 1.52408 6.55685 1.57811C6.47099 1.62608 6.38658 1.67529 6.30386 1.72556C6.21066 1.78169 6.11851 1.8397 6.02677 1.89708C5.94426 1.94986 5.86237 2.00306 5.78132 2.05793C5.69084 2.11888 5.60162 2.18234 5.51282 2.24579C5.43302 2.30297 5.35365 2.35994 5.27553 2.41753C5.18778 2.4835 5.104 2.5522 5.01562 2.62068C4.93938 2.68163 4.86252 2.74216 4.78796 2.8052C4.70209 2.87599 4.62062 2.94929 4.5379 3.02259C4.46459 3.08793 4.39066 3.15139 4.31904 3.21904C4.23757 3.29507 4.15819 3.37402 4.0786 3.45235C4.00949 3.52063 3.93912 3.58807 3.87126 3.65823C3.85891 3.67121 3.84697 3.68545 3.83398 3.69865C4.76932 4.18202 5.75493 4.56131 6.77299 4.82981C7.30244 3.14218 8.24407 1.61309 9.51304 0.380981Z" fill="white"/>
<path d="M4.07658 20.5643C4.15637 20.6428 4.23575 20.7222 4.31764 20.7986C4.38885 20.8646 4.46215 20.9272 4.53524 20.9932C4.61839 21.0671 4.70153 21.1413 4.78698 21.2125C4.86112 21.2747 4.93673 21.3348 5.01255 21.3951C5.09841 21.4646 5.18407 21.5338 5.27497 21.6006C5.35225 21.6586 5.43079 21.7147 5.50933 21.7723C5.59896 21.8366 5.68944 21.9009 5.78075 21.9627C5.86097 22.0167 5.94244 22.0695 6.02391 22.1214C6.11669 22.1809 6.20926 22.2393 6.30371 22.2959C6.38644 22.3457 6.47001 22.3945 6.55378 22.4423C6.6497 22.4972 6.74583 22.5504 6.8428 22.6021C6.92846 22.645 7.01433 22.6917 7.1002 22.7347C7.19884 22.7845 7.29832 22.8325 7.40032 22.8798C7.48619 22.9202 7.57331 22.96 7.66169 22.999C7.76327 23.044 7.86568 23.0846 7.96831 23.1276C8.05669 23.1636 8.14465 23.1992 8.23387 23.2331C8.33796 23.2731 8.44352 23.3104 8.54907 23.3468C8.63829 23.378 8.72751 23.4095 8.81799 23.4386C8.92522 23.4733 9.03245 23.5052 9.14261 23.5368C9.23183 23.563 9.32147 23.5896 9.41153 23.6137C9.44629 23.6231 9.48148 23.6304 9.51624 23.6394C8.24665 22.4065 7.30461 20.8765 6.77494 19.1879C5.75688 19.4566 4.77128 19.8359 3.83594 20.3194C3.8485 20.3322 3.86044 20.346 3.87301 20.3592C3.9373 20.4288 4.00663 20.4962 4.07658 20.5643Z" fill="white"/>
<path d="M3.25366 19.6682C4.28408 19.1101 5.3767 18.6753 6.5087 18.3729C5.9537 16.4429 5.66237 14.4468 5.6429 12.4387H0.5C0.593618 15.0866 1.56184 17.6289 3.25366 19.6682Z" fill="white"/>
</g>
<defs>
<clipPath id="clip0_1996_137">
<rect width="24" height="24" fill="white" transform="translate(0.5)"/>
</clipPath>
</defs>
</svg>
