<svg width="21" height="21" viewBox="0 0 21 21" fill="none" xmlns="http://www.w3.org/2000/svg">
<path d="M19.0089 18.3778L12.3076 8.64216L11.5498 7.54123L6.75632 0.577101L6.35907 0H0.46875L1.90541 2.08767L8.27907 11.3484L9.03681 12.4482L14.158 19.8889L14.5552 20.4655H20.4456L19.0089 18.3778ZM15.2552 19.133L9.93469 11.4027L9.17696 10.3023L3.0032 1.33229H5.65892L10.6517 8.58654L11.4095 9.68688L17.9109 19.133H15.2552Z" fill="white"/>
<path d="M9.17671 10.3022L9.93445 11.4028L9.03637 12.4481L2.14477 20.4654H0.445312L8.27863 11.3481L9.17671 10.3022Z" fill="white"/>
<path d="M19.7368 0L12.3082 8.64236L11.4101 9.68708L10.6523 8.58654L11.5504 7.54123L16.5828 1.68413L18.0375 0H19.7368Z" fill="white"/>
</svg>
