<svg width="25" height="18" viewBox="0 0 25 18" fill="none" xmlns="http://www.w3.org/2000/svg">
<path d="M23.6477 3.27386C23.3732 2.25425 22.5693 1.45033 21.5497 1.17582C19.6869 0.666016 12.2359 0.666016 12.2359 0.666016C12.2359 0.666016 4.78497 0.666016 2.92222 1.15621C1.92222 1.43072 1.09869 2.25425 0.82418 3.27386C0.333984 5.1366 0.333984 8.99935 0.333984 8.99935C0.333984 8.99935 0.333984 12.8817 0.82418 14.7248C1.09869 15.7444 1.90261 16.5484 2.92222 16.8229C4.80457 17.3327 12.2359 17.3327 12.2359 17.3327C12.2359 17.3327 19.6869 17.3327 21.5497 16.8425C22.5693 16.568 23.3732 15.7641 23.6477 14.7444C24.1379 12.8817 24.1379 9.01896 24.1379 9.01896C24.1379 9.01896 24.1575 5.1366 23.6477 3.27386Z" fill="white"/>
<path d="M9.86328 12.5669L16.0594 8.99832L9.86328 5.42969V12.5669Z" fill="#1A1919"/>
</svg>
